<?xml version="1.0" encoding="UTF-8" standalone="no" ?>
<!DOCTYPE svg PUBLIC "-//W3C//DTD SVG 1.1//EN" "http://www.w3.org/Graphics/SVG/1.1/DTD/svg11.dtd">
<svg xmlns="http://www.w3.org/2000/svg" xmlns:xlink="http://www.w3.org/1999/xlink" version="1.1" width="1080" height="1080" viewBox="0 0 1080 1080" xml:space="preserve">
<desc>Created with Fabric.js 5.2.4</desc>
<defs>
</defs>
<rect x="0" y="0" width="100%" height="100%" fill="transparent"></rect>
<g transform="matrix(1 0 0 1 540 540)" id="e10f17e6-836e-4992-bb22-37483f2a2aad"  >
</g>
<g transform="matrix(1 0 0 1 540 540)" id="a5878050-2f5f-4933-95de-de64839b374c"  >
<rect style="stroke: none; stroke-width: 1; stroke-dasharray: none; stroke-linecap: butt; stroke-dashoffset: 0; stroke-linejoin: miter; stroke-miterlimit: 4; fill: rgb(255,255,255); fill-rule: nonzero; opacity: 1; visibility: hidden;" vector-effect="non-scaling-stroke"  x="-540" y="-540" rx="0" ry="0" width="1080" height="1080" />
</g>
<g transform="matrix(1.3 0 0 1.62 540 569.21)"  >
<g style="" vector-effect="non-scaling-stroke"   >
		<g transform="matrix(1.63 0 0 1.63 -0.65 185.11)"  >
<path style="stroke: rgb(0,68,143); stroke-width: 1; stroke-dasharray: none; stroke-linecap: butt; stroke-dashoffset: 0; stroke-linejoin: miter; stroke-miterlimit: 4; fill: rgb(9,54,103); fill-rule: nonzero; opacity: 1;" vector-effect="non-scaling-stroke"  transform=" translate(-245, -358.46)" d="M 486.382 341.346 C 488.38 341.346 490 339.726 490 337.727 L 490 318.698 C 490 316.69899999999996 488.38 315.07899999999995 486.382 315.07899999999995 L 3.619 315.07899999999995 C 1.6210000000000002 315.07899999999995 0 316.69899999999996 0 318.698 L 0 337.727 C 0 339.726 1.621 341.346 3.619 341.346 L 35.517 341.346 L 35.517 375.56600000000003 L 3.619 375.56600000000003 C 1.6210000000000002 375.56600000000003 0 377.18600000000004 0 379.18500000000006 L 0 398.21400000000006 C 0 400.2130000000001 1.621 401.8330000000001 3.619 401.8330000000001 L 486.382 401.8330000000001 C 488.38 401.8330000000001 490 400.2130000000001 490 398.21400000000006 L 490 379.18500000000006 C 490 377.18600000000004 488.38 375.56600000000003 486.382 375.56600000000003 L 454.485 375.56600000000003 L 454.485 341.346 L 486.382 341.346 z M 93.937 341.346 L 214.913 341.346 L 214.913 375.56600000000003 L 93.937 375.56600000000003 L 93.937 341.346 z M 396.064 375.565 L 273.331 375.565 L 273.331 341.345 L 396.064 341.345 L 396.064 375.565 z" stroke-linecap="round" />
</g>
		<g transform="matrix(1.63 0 0 1.63 194.99 -102.49)"  >
<path style="stroke: rgb(0,68,143); stroke-width: 1; stroke-dasharray: none; stroke-linecap: butt; stroke-dashoffset: 0; stroke-linejoin: miter; stroke-miterlimit: 4; fill: rgb(9,54,103); fill-rule: nonzero; opacity: 1;" vector-effect="non-scaling-stroke"  transform=" translate(-364.58, -182.38)" d="M 443.795 88.167 L 377.66200000000003 88.167 L 377.66200000000003 118.224 C 377.66200000000003 120.985 375.42400000000004 123.224 372.66200000000003 123.224 L 356.504 123.224 C 353.742 123.224 351.504 120.985 351.504 118.224 L 351.504 88.167 L 285.37300000000005 88.167 C 277.088 88.167 270.37300000000005 94.883 270.37300000000005 103.167 L 270.37300000000005 261.589 C 270.37300000000005 269.873 277.088 276.589 285.37300000000005 276.589 L 443.7950000000001 276.589 C 452.0780000000001 276.589 458.7950000000001 269.873 458.7950000000001 261.589 L 458.7950000000001 103.167 C 458.795 94.883 452.078 88.167 443.795 88.167 z M 378.898 222.093 C 377.812 223.29299999999998 376.31600000000003 223.903 374.81600000000003 223.903 C 373.50100000000003 223.903 372.18100000000004 223.433 371.12800000000004 222.482 C 370.148 221.594 367.20400000000006 218.932 367.20400000000006 218.932 L 367.20400000000006 243.53099999999998 C 367.20400000000006 246.569 364.74100000000004 249.03099999999998 361.7060000000001 249.03099999999998 C 358.6690000000001 249.03099999999998 356.2060000000001 246.569 356.2060000000001 243.53099999999998 L 356.2060000000001 218.932 C 356.2060000000001 218.932 353.2650000000001 221.594 352.2820000000001 222.482 C 351.2310000000001 223.434 349.9110000000001 223.903 348.5940000000001 223.903 C 347.0940000000001 223.903 345.6000000000001 223.29299999999998 344.5140000000001 222.093 C 342.47700000000015 219.83999999999997 342.6510000000001 216.362 344.90300000000013 214.32399999999998 C 344.90300000000013 214.32399999999998 353.33300000000014 206.77999999999997 357.44800000000015 202.97599999999997 C 358.61800000000017 201.89499999999998 359.98900000000015 200.95499999999998 361.70600000000013 200.95499999999998 C 363.4210000000001 200.956 364.79400000000015 201.89499999999998 365.9640000000001 202.97599999999997 C 370.0770000000001 206.77999999999997 378.5070000000001 214.32399999999998 378.5070000000001 214.32399999999998 C 380.762 216.362 380.935 219.84 378.898 222.093 z M 429.646 222.093 C 428.56 223.29299999999998 427.06600000000003 223.903 425.56600000000003 223.903 C 424.25000000000006 223.903 422.92900000000003 223.434 421.87800000000004 222.482 C 420.898 221.595 417.95400000000006 218.932 417.95400000000006 218.932 L 417.95400000000006 243.53099999999998 C 417.95400000000006 246.569 415.49100000000004 249.03099999999998 412.45400000000006 249.03099999999998 C 409.41900000000004 249.03099999999998 406.9560000000001 246.569 406.9560000000001 243.53099999999998 L 406.9560000000001 218.932 C 406.9560000000001 218.932 404.0130000000001 221.594 403.0320000000001 222.482 C 401.9790000000001 223.434 400.6590000000001 223.903 399.3440000000001 223.903 C 397.8440000000001 223.903 396.3480000000001 223.29299999999998 395.2620000000001 222.093 C 393.22500000000014 219.83999999999997 393.3990000000001 216.362 395.65300000000013 214.32399999999998 C 395.65300000000013 214.32399999999998 404.08300000000014 206.77999999999997 408.19600000000014 202.97599999999997 C 409.36600000000016 201.89499999999998 410.73900000000015 200.95499999999998 412.4540000000001 200.95499999999998 C 414.1710000000001 200.956 415.54200000000014 201.89499999999998 416.7120000000001 202.97599999999997 C 420.8270000000001 206.77999999999997 429.2570000000001 214.32399999999998 429.2570000000001 214.32399999999998 C 431.51 216.362 431.684 219.84 429.646 222.093 z" stroke-linecap="round" />
</g>
		<g transform="matrix(1.63 0 0 1.63 -195.49 -102.49)"  >
<path style="stroke: rgb(0,68,143); stroke-width: 1; stroke-dasharray: none; stroke-linecap: butt; stroke-dashoffset: 0; stroke-linejoin: miter; stroke-miterlimit: 4; fill: rgb(9,54,103); fill-rule: nonzero; opacity: 1;" vector-effect="non-scaling-stroke"  transform=" translate(-125.42, -182.38)" d="M 204.629 88.167 L 138.49599999999998 88.167 L 138.49599999999998 118.224 C 138.49599999999998 120.985 136.25799999999998 123.224 133.49599999999998 123.224 L 117.33799999999998 123.224 C 114.57599999999998 123.224 112.33799999999998 120.985 112.33799999999998 118.224 L 112.33799999999998 88.167 L 46.206 88.167 C 37.922000000000004 88.167 31.206000000000003 94.883 31.206000000000003 103.167 L 31.206000000000003 261.589 C 31.206000000000003 269.873 37.922000000000004 276.589 46.206 276.589 L 204.62900000000002 276.589 C 212.912 276.589 219.62900000000002 269.873 219.62900000000002 261.589 L 219.62900000000002 103.167 C 219.629 94.883 212.912 88.167 204.629 88.167 z M 139.731 222.093 C 138.64499999999998 223.29299999999998 137.15 223.903 135.65 223.903 C 134.334 223.903 133.014 223.433 131.96200000000002 222.482 C 130.98100000000002 221.594 128.038 218.932 128.038 218.932 L 128.038 243.53099999999998 C 128.038 246.569 125.57500000000002 249.03099999999998 122.53900000000002 249.03099999999998 C 119.50300000000001 249.03099999999998 117.04000000000002 246.569 117.04000000000002 243.53099999999998 L 117.04000000000002 218.932 C 117.04000000000002 218.932 114.09800000000001 221.594 113.11600000000001 222.482 C 112.06400000000001 223.434 110.74400000000001 223.903 109.42800000000001 223.903 C 107.92800000000001 223.903 106.433 223.29299999999998 105.34700000000001 222.093 C 103.31 219.83999999999997 103.48400000000001 216.362 105.73700000000001 214.32399999999998 C 105.73700000000001 214.32399999999998 114.167 206.77999999999997 118.281 202.97599999999997 C 119.45100000000001 201.89499999999998 120.82300000000001 200.95499999999998 122.539 200.95499999999998 C 124.255 200.956 125.627 201.89499999999998 126.797 202.97599999999997 C 130.911 206.77999999999997 139.341 214.32399999999998 139.341 214.32399999999998 C 141.595 216.362 141.768 219.84 139.731 222.093 z M 190.479 222.093 C 189.393 223.29299999999998 187.899 223.903 186.399 223.903 C 185.084 223.903 183.763 223.434 182.711 222.482 C 181.73100000000002 221.595 178.787 218.932 178.787 218.932 L 178.787 243.53099999999998 C 178.787 246.569 176.324 249.03099999999998 173.288 249.03099999999998 C 170.252 249.03099999999998 167.78900000000002 246.569 167.78900000000002 243.53099999999998 L 167.78900000000002 218.932 C 167.78900000000002 218.932 164.847 221.594 163.865 222.482 C 162.81300000000002 223.434 161.493 223.903 160.17700000000002 223.903 C 158.67700000000002 223.903 157.18200000000002 223.29299999999998 156.09600000000003 222.093 C 154.05900000000003 219.83999999999997 154.23300000000003 216.362 156.48600000000002 214.32399999999998 C 156.48600000000002 214.32399999999998 164.91600000000003 206.77999999999997 169.03000000000003 202.97599999999997 C 170.20000000000002 201.89499999999998 171.57200000000003 200.95499999999998 173.28800000000004 200.95499999999998 C 175.00400000000005 200.956 176.37600000000003 201.89499999999998 177.54600000000005 202.97599999999997 C 181.66000000000005 206.77999999999997 190.09000000000006 214.32399999999998 190.09000000000006 214.32399999999998 C 192.344 216.362 192.518 219.84 190.479 222.093 z" stroke-linecap="round" />
</g>
</g>
</g>
</svg>