<svg id="acfa5301-087a-42a6-83f5-40bab752ff66" data-name="Ebene 1" xmlns="http://www.w3.org/2000/svg" viewBox="0 0 122.36 64.11"><title>dashboard</title><path d="M137.16,109.49H24.48a1.83,1.83,0,0,1-1.83-1.83,58.21,58.21,0,0,1,116.36,0,1.84,1.84,0,0,1-1.84,1.83Z" transform="translate(-19.65 -48.38)" fill="none" stroke="#1c3c6d" stroke-miterlimit="10" stroke-width="6"/><path d="M94.3,109.39H68.53a12.89,12.89,0,1,1,25.77,0Z" transform="translate(-19.65 -48.38)" fill="#1c3c6d"/><path d="M90.2,103l-5.08-4.17,24.66-25.69c.58-.61,1.28,0,.8.65Z" transform="translate(-19.65 -48.38)" fill="#1c3c6d"/><line x1="61.17" y1="3.95" x2="61.17" y2="13.2" fill="none" stroke="#1c3c6d" stroke-linecap="round" stroke-miterlimit="10" stroke-width="6"/><line x1="27.2" y1="27.77" x2="20.42" y2="20.99" fill="none" stroke="#1c3c6d" stroke-linecap="round" stroke-miterlimit="10" stroke-width="6"/><line x1="95.75" y1="27.71" x2="102.26" y2="21.21" fill="none" stroke="#1c3c6d" stroke-linecap="round" stroke-miterlimit="10" stroke-width="6"/><line x1="79.56" y1="17.51" x2="83.29" y2="8.88" fill="none" stroke="#1c3c6d" stroke-linecap="round" stroke-miterlimit="10" stroke-width="6"/><line x1="43.13" y1="17.43" x2="39.35" y2="8.96" fill="none" stroke="#1c3c6d" stroke-linecap="round" stroke-miterlimit="10" stroke-width="6"/><line x1="17.52" y1="44.53" x2="8.89" y2="40.95" fill="none" stroke="#1c3c6d" stroke-linecap="round" stroke-miterlimit="10" stroke-width="6"/><line x1="112.94" y1="40.65" x2="104.53" y2="44.83" fill="none" stroke="#1c3c6d" stroke-linecap="round" stroke-miterlimit="10" stroke-width="6"/></svg>